<svg width="16" height="25" viewBox="0 0 16 25" fill="none" xmlns="http://www.w3.org/2000/svg">
<path d="M1.3335 10.3334H2.4935C3.2135 10.3334 3.78016 10.9534 3.72016 11.6667L3.16683 18.3067C3.0735 19.3934 3.93349 20.3267 5.02683 20.3267H12.1268C13.0868 20.3267 13.9268 19.54 14.0002 18.5867L14.3602 13.5867C14.4402 12.48 13.6002 11.58 12.4868 11.58H3.88017" stroke="#1C846A" stroke-miterlimit="10" stroke-linecap="round" stroke-linejoin="round"/>
<path d="M10.8333 23.6667C11.2936 23.6667 11.6667 23.2936 11.6667 22.8333C11.6667 22.3731 11.2936 22 10.8333 22C10.3731 22 10 22.3731 10 22.8333C10 23.2936 10.3731 23.6667 10.8333 23.6667Z" stroke="#1C846A" stroke-miterlimit="10" stroke-linecap="round" stroke-linejoin="round"/>
<path d="M5.49984 23.6667C5.96007 23.6667 6.33317 23.2936 6.33317 22.8333C6.33317 22.3731 5.96007 22 5.49984 22C5.0396 22 4.6665 22.3731 4.6665 22.8333C4.6665 23.2936 5.0396 23.6667 5.49984 23.6667Z" stroke="#1C846A" stroke-miterlimit="10" stroke-linecap="round" stroke-linejoin="round"/>
<path d="M6 14.3334H14" stroke="#1C846A" stroke-miterlimit="10" stroke-linecap="round" stroke-linejoin="round"/>
<path d="M10.7761 5.41125L8.49988 7.6875L6.22363 5.41125" stroke="#1C846A" stroke-miterlimit="10" stroke-linecap="round" stroke-linejoin="round"/>
<path d="M8.5 1.3125L8.5 7.62375" stroke="#1C846A" stroke-miterlimit="10" stroke-linecap="round" stroke-linejoin="round"/>
</svg>
