<svg width="16" height="25" viewBox="0 0 16 25" fill="none" xmlns="http://www.w3.org/2000/svg">
<path d="M1.33301 10.3334H2.49301C3.21301 10.3334 3.77968 10.9534 3.71968 11.6667L3.16634 18.3067C3.07301 19.3934 3.933 20.3267 5.02634 20.3267H12.1263C13.0863 20.3267 13.9263 19.54 13.9997 18.5867L14.3597 13.5867C14.4397 12.48 13.5997 11.58 12.4863 11.58H3.87968" stroke="#E20613" stroke-miterlimit="10" stroke-linecap="round" stroke-linejoin="round"/>
<path d="M10.8333 23.6667C11.2936 23.6667 11.6667 23.2936 11.6667 22.8333C11.6667 22.3731 11.2936 22 10.8333 22C10.3731 22 10 22.3731 10 22.8333C10 23.2936 10.3731 23.6667 10.8333 23.6667Z" stroke="#E20613" stroke-miterlimit="10" stroke-linecap="round" stroke-linejoin="round"/>
<path d="M5.50033 23.6667C5.96056 23.6667 6.33366 23.2936 6.33366 22.8333C6.33366 22.3731 5.96056 22 5.50033 22C5.04009 22 4.66699 22.3731 4.66699 22.8333C4.66699 23.2936 5.04009 23.6667 5.50033 23.6667Z" stroke="#E20613" stroke-miterlimit="10" stroke-linecap="round" stroke-linejoin="round"/>
<path d="M6 14.3334H14" stroke="#E20613" stroke-miterlimit="10" stroke-linecap="round" stroke-linejoin="round"/>
<path d="M10.7761 3.58875L8.49988 1.3125L6.22363 3.58875" stroke="#E20613" stroke-miterlimit="10" stroke-linecap="round" stroke-linejoin="round"/>
<path d="M8.5 7.6875L8.5 1.37625" stroke="#E20613" stroke-miterlimit="10" stroke-linecap="round" stroke-linejoin="round"/>
</svg>
